<?xml version="1.0" encoding="utf-8"?>
<!-- Generator: Adobe Illustrator 27.2.0, SVG Export Plug-In . SVG Version: 6.00 Build 0)  -->
<svg version="1.1" id="Layer_1" xmlns="http://www.w3.org/2000/svg" xmlns:xlink="http://www.w3.org/1999/xlink" x="0px" y="0px"
	 viewBox="0 0 1779.9 1334.9" style="enable-background:new 0 0 1779.9 1334.9;" xml:space="preserve">
<style type="text/css">
	.st0{fill:#EAEAEA;}
	.st1{fill:#EBEBEB;}
	.st2{fill:#D8D8D8;}
	.st3{fill:#0CC0DF;}
	.st4{clip-path:url(#SVGID_00000180363507349024145840000009626303506877649585_);}
	.st5{clip-path:url(#SVGID_00000131368040083639955050000008229584302536585886_);}
	.st6{fill:#0097B2;}
</style>
<g>
	<path class="st0" d="M1403.3,635.4c0,57.4-9.4,112.5-26.7,164.1c-68.5,203.7-261,350.4-487.9,350.4
		c-273.2,0-496.7-212.8-513.6-481.7c-0.7-10.8-1-21.7-1-32.7c0-44.4,5.6-87.5,16.2-128.6c27.5-82,73.7-157.2,136.7-220.1
		c102.2-102.2,236.6-160.5,380.3-165.4C1183,131.1,1403.3,357.5,1403.3,635.4"/>
	<path class="st1" d="M375.2,668.3C375.2,668.3,375.2,668.3,375.2,668.3c-0.7-10.8-1-21.8-1-32.7c0,0,0,0,0,0
		c0,10.9,0.3,21.8,1,32.6C375.2,668.1,375.2,668.2,375.2,668.3"/>
	<path class="st2" d="M415.7,687h-1c-16,0-30.2-7.3-39.5-18.7c0-0.1,0-0.1,0-0.2c-0.7-10.7-1-21.6-1-32.6c0.7,0,1.3,0,2,0h1
		c26.2,0,48.1-19.9,50.7-45.9c23.1-233.8,221-417.1,460.9-417.1c0.4,0,0.8,0,1.2,0c162.2,0.4,305.4,85.2,387.9,212.5
		C1193,286.8,1067.7,224.3,928.5,224c-0.4,0-0.8,0-1.2,0c-239.9,0-437.7,183.3-460.9,417.1C463.9,667.1,441.9,687,415.7,687"/>
	<path class="st3" d="M750.5,635.5V434.3l174.3,100.6L1099,635.5L924.7,736.1L750.5,836.7V635.5"/>
	<g>
		<defs>
			<rect id="SVGID_1_" x="325.1" y="69.6" width="1129.6" height="1133"/>
		</defs>
		<clipPath id="SVGID_00000128447917508935392790000015412225552944076210_">
			<use xlink:href="#SVGID_1_"  style="overflow:visible;"/>
		</clipPath>
		<g style="clip-path:url(#SVGID_00000128447917508935392790000015412225552944076210_);">
			<path class="st3" d="M888.7,1201.4v-102.9c255.8,0,463.8-208.4,463.1-464.2c-0.6-253.8-208-461.2-462-461.8
				c-240.4-0.6-438.9,182.9-462,417.1c-2.6,26.1-24.5,45.9-50.7,45.9h-1c-30,0-53.7-25.7-50.8-55.5
				c12.6-130.2,69.4-250.9,163.1-344.6C595.4,128.5,737.5,69.6,888.7,69.6c151.2,0,293.3,58.9,400.3,165.7
				c105.9,105.8,164.6,246.2,165.8,395.7c1.2,149.4-57.1,294-161.8,400.7C1185.6,1141.1,1041.8,1201.4,888.7,1201.4"/>
		</g>
	</g>
	<g>
		<defs>
			<rect id="SVGID_00000111185776214522851350000015562622766313296522_" x="742.1" y="990.4" width="217.7" height="274.8"/>
		</defs>
		<clipPath id="SVGID_00000008122144877819913050000003261597982650589358_">
			<use xlink:href="#SVGID_00000111185776214522851350000015562622766313296522_"  style="overflow:visible;"/>
		</clipPath>
		<g style="clip-path:url(#SVGID_00000008122144877819913050000003261597982650589358_);">
			<path class="st3" d="M958.9,1129v136.3l-108.1-68.2L742.7,1129l108.1-68.2l108.1-68.2V1129"/>
		</g>
	</g>
	<path class="st2" d="M1052.7,662.3l46.3-26.7L1052.7,662.3 M1099,635.5L924.7,534.9L750.5,434.3L1099,635.5"/>
	<path class="st6" d="M1052.7,662.3L750.5,434.3l174.3,100.6L1099,635.5L1052.7,662.3"/>
</g>
</svg>
