<svg xmlns="http://www.w3.org/2000/svg" xmlns:xlink="http://www.w3.org/1999/xlink" width="31.88" viewBox="0 0 600 449.999984" height="32" preserveAspectRatio="xMidYMid meet" version="1.0"><defs><clipPath id="e5b7e51eb8"><path d="M 129.476562 67.5 L 427.085938 67.5 L 427.085938 366 L 129.476562 366 Z M 129.476562 67.5 " clip-rule="nonzero"/></clipPath><clipPath id="e0a52019f4"><path d="M 239.332031 310.085938 L 296.675781 310.085938 L 296.675781 382.492188 L 239.332031 382.492188 Z M 239.332031 310.085938 " clip-rule="nonzero"/></clipPath></defs><path fill="#eaeaea" d="M 413.53125 216.539062 C 413.53125 231.648438 411.054688 246.1875 406.488281 259.765625 C 388.445312 313.425781 337.71875 352.070312 277.960938 352.070312 C 205.980469 352.070312 147.109375 296 142.664062 225.15625 C 142.476562 222.3125 142.390625 219.433594 142.390625 216.539062 C 142.390625 204.84375 143.875 193.492188 146.660156 182.667969 C 153.894531 161.058594 166.085938 141.257812 182.683594 124.675781 C 209.605469 97.75 245.015625 82.394531 282.882812 81.101562 C 355.480469 83.683594 413.53125 143.328125 413.53125 216.539062 " fill-opacity="1" fill-rule="nonzero"/><path fill="#ebebeb" d="M 142.664062 225.210938 C 142.664062 225.207031 142.664062 225.207031 142.664062 225.203125 C 142.476562 222.359375 142.390625 219.480469 142.390625 216.585938 C 142.390625 216.582031 142.390625 216.578125 142.390625 216.574219 C 142.390625 219.457031 142.476562 222.324219 142.664062 225.15625 C 142.664062 225.175781 142.664062 225.191406 142.664062 225.210938 " fill-opacity="1" fill-rule="nonzero"/><path fill="#d8d8d8" d="M 153.351562 230.140625 L 153.078125 230.140625 C 148.867188 230.140625 145.117188 228.210938 142.664062 225.210938 C 142.664062 225.191406 142.664062 225.175781 142.664062 225.15625 C 142.476562 222.324219 142.390625 219.457031 142.390625 216.574219 C 142.5625 216.582031 142.738281 216.585938 142.914062 216.585938 L 143.1875 216.585938 C 150.085938 216.585938 155.863281 211.355469 156.542969 204.492188 C 162.636719 142.886719 214.761719 94.605469 277.960938 94.605469 C 278.058594 94.605469 278.167969 94.605469 278.269531 94.609375 C 321.007812 94.714844 358.738281 117.042969 380.464844 150.597656 C 358.113281 124.714844 325.117188 108.25 288.433594 108.160156 C 288.332031 108.160156 288.226562 108.160156 288.128906 108.160156 C 224.933594 108.160156 172.804688 156.441406 166.710938 218.042969 C 166.035156 224.90625 160.25 230.140625 153.351562 230.140625 " fill-opacity="1" fill-rule="nonzero"/><path fill="#0cc0df" d="M 241.535156 216.585938 L 241.535156 163.582031 L 287.449219 190.082031 L 333.367188 216.585938 L 287.449219 243.089844 L 241.535156 269.589844 L 241.535156 216.585938 " fill-opacity="1" fill-rule="nonzero"/><g clip-path="url(#e5b7e51eb8)"><path fill="#0cc0df" d="M 277.960938 365.671875 L 277.960938 338.566406 C 345.34375 338.566406 400.140625 283.675781 399.972656 216.273438 C 399.808594 149.398438 345.164062 94.773438 278.269531 94.609375 C 214.933594 94.449219 162.644531 142.789062 156.542969 204.492188 C 155.863281 211.355469 150.085938 216.585938 143.1875 216.585938 L 142.914062 216.585938 C 135.023438 216.585938 128.777344 209.8125 129.539062 201.960938 C 132.855469 167.664062 147.824219 135.851562 172.511719 111.164062 C 200.675781 83.007812 238.128906 67.5 277.960938 67.5 C 317.796875 67.5 355.242188 83.007812 383.410156 111.164062 C 411.296875 139.046875 426.777344 176.023438 427.082031 215.402344 C 427.386719 254.773438 412.027344 292.851562 384.449219 320.957031 C 356.167969 349.78125 318.285156 365.671875 277.960938 365.671875 " fill-opacity="1" fill-rule="nonzero"/></g><g clip-path="url(#e0a52019f4)"><path fill="#0cc0df" d="M 296.441406 346.578125 L 296.441406 382.492188 L 267.972656 364.535156 L 239.5 346.578125 L 267.972656 328.617188 L 296.441406 310.660156 L 296.441406 346.578125 " fill-opacity="1" fill-rule="nonzero"/></g><path fill="#d8d8d8" d="M 321.164062 223.628906 L 333.367188 216.585938 L 321.164062 223.628906 M 333.367188 216.585938 L 287.449219 190.082031 L 241.535156 163.582031 L 333.367188 216.585938 " fill-opacity="1" fill-rule="nonzero"/><path fill="#0097b2" d="M 321.164062 223.628906 L 241.535156 163.582031 L 287.449219 190.082031 L 333.367188 216.585938 L 321.164062 223.628906 " fill-opacity="1" fill-rule="nonzero"/></svg>